<?xml version="1.0" standalone="no"?>
<!DOCTYPE svg PUBLIC "-//W3C//DTD SVG 20010904//EN"
 "http://www.w3.org/TR/2001/REC-SVG-20010904/DTD/svg10.dtd">
<svg version="1.0" xmlns="http://www.w3.org/2000/svg"
 width="626.000000pt" height="626.000000pt" viewBox="0 0 626.000000 626.000000"
 preserveAspectRatio="xMidYMid meet">

<g transform="translate(0.000000,626.000000) scale(0.100000,-0.100000)"
fill="#FFC0D3" stroke="none">
<path d="M4765 4811 c-71 -43 -731 -434 -740 -438 -13 -6 70 74 160 155 l70
63 -875 -4 c-832 -4 -879 -6 -965 -25 -222 -49 -390 -145 -511 -291 -276 -332
-251 -837 57 -1151 42 -42 100 -93 130 -113 114 -75 269 -141 362 -153 l42 -6
174 184 c96 101 178 185 183 186 7 3 -118 -197 -362 -578 -47 -74 -94 -148
-104 -165 -10 -16 203 193 472 465 l491 495 -362 5 c-347 5 -364 6 -402 27
-205 110 -168 402 60 472 65 20 88 21 674 21 l607 0 440 434 c241 239 437 435
434 435 -3 1 -18 -8 -35 -18z"/>
<path d="M3599 3517 c-169 -172 -388 -396 -489 -499 l-182 -188 321 0 c192 0
340 -4 371 -11 76 -16 140 -64 173 -129 69 -134 -1 -304 -148 -359 -52 -20
-78 -21 -672 -21 l-618 -1 -110 -106 c-274 -263 -793 -783 -763 -765 18 11
119 70 223 132 105 62 269 160 365 218 96 58 180 107 185 109 13 6 -60 -63
-160 -153 l-79 -71 719 4 c896 4 1052 8 1135 27 338 78 561 280 656 593 24 77
27 106 28 228 0 156 -13 225 -66 353 -109 261 -359 463 -658 532 l-45 10 -189
-193 c-103 -105 -180 -178 -170 -162 25 41 402 634 423 665 26 37 63 100 59
99 -2 0 -141 -141 -309 -312z"/>
</g>
</svg>
